<svg id="Layer_1" data-name="Layer 1" xmlns="http://www.w3.org/2000/svg" viewBox="0 0 72.17 31.8"><defs><style>.cls-1{fill:#929497;}</style></defs><title> </title><g id="Symbols"><g id="Logos_Navy_Aetna" data-name="Logos/Navy/Aetna"><path id="Aetna_grey" data-name="Aetna grey" class="cls-1" d="M66.28,21.93c-.08-1,0-2.47,0-3.7-.19,0-.43,0-.61,0-2.18,0-3.06.75-3.06,2s.69,1.86,2.29,1.86a7.21,7.21,0,0,0,1.4-.18m4.84,2.73c-2.87,0-5.1.32-7.36.32C59.48,25,58,23.2,58,20.17s2.42-4.51,7.65-4.51h.72v-.32c0-2.07-.64-2.95-2.74-2.95a9.43,9.43,0,0,0-4.12,1.09l-.18-3.32a15.74,15.74,0,0,1,5.42-.82C69.31,9.34,71,10.85,71,15c0,2.24-.13,4.15-.13,5.48a29,29,0,0,0,.24,4.19M22,15.9c2,0,3-.67,3-2.13,0-1-.69-1.59-1.78-1.59-1.92,0-2.58,1.51-2.58,3.61v.08c.4,0,.9,0,1.38,0m-13.73,6c-.08-1-.05-2.47,0-3.7-.19,0-.43,0-.62,0-2.17,0-3,.75-3,2s.69,1.86,2.28,1.86a7.22,7.22,0,0,0,1.41-.18M22.6,18.42l-1.91,0v.11c0,2.12,1.38,3.48,4,3.48a8.12,8.12,0,0,0,4-1.06l.19,3.32a13.49,13.49,0,0,1-4.91.79c-5.23,0-7.76-1.8-8.21-6.66-.58,0-1.51-.06-2.73-.08,0,.85-.06,1.62-.06,2.23a26.12,26.12,0,0,0,.22,4.14c-2.87,0-5.1.32-7.36.32C1.51,25,0,23.2,0,20.17s2.42-4.51,7.65-4.51h.72v-.32c0-2.07-.64-2.95-2.74-2.95a9.43,9.43,0,0,0-4.12,1.09l-.18-3.27a16,16,0,0,1,5.42-.82c4.59,0,6.29,1.52,6.29,5.66v.66c1.11,0,1.94,0,2.68.08.45-4.09,2.52-6.4,7.65-6.4,4.25,0,6.19,1.78,6.19,4.46,0,3.14-2.34,4.57-7,4.57m33.46-.66c0-1.25,0-2.92,0-2.92,0-3.75-1.65-5.45-6.3-5.45-2.6,0-4.49.45-7.38.45.16,2.63.16,5.9.16,7.92s-.08,5.73-.16,6.9h5c-.1-1.19-.21-4.59-.21-6.9,0-1.3,0-2.9.08-5a6.07,6.07,0,0,1,1.81-.29c1.75,0,2.31.82,2.31,3.08,0,0,0,1.4,0,2.25,0,2-.08,5.74-.16,6.91h5c-.11-1.2-.22-4.62-.19-6.93M40.34,21.34l.21,3.29a13.1,13.1,0,0,1-3.19.35c-3.29,0-5-1.38-5-4.78,0-2.66,0-5.55.08-7.14H30.7c0-.72,0-1.76,0-2.5,2.55-.42,3.37-1.86,3.74-4.67h2.82c-.11,1.16-.19,2.84-.19,4h3v3.22h-3v5.76c0,2.23.45,2.84,2,2.84a2.48,2.48,0,0,0,1.3-.32"/></g></g></svg>