<svg id="Layer_1" data-name="Layer 1" xmlns="http://www.w3.org/2000/svg" viewBox="0 0 47 45.46"><defs><style>.cls-1{fill:#4168b1;}</style></defs><title>wht-turnkey-rocket</title><path class="cls-1" d="M44,2.59a1.35,1.35,0,0,0-1-1A30.68,30.68,0,0,0,36,1c-8.77,0-14,4.69-18,10.88H9.14A4.07,4.07,0,0,0,5.49,14.1l-4.2,8.4a2,2,0,0,0,.92,2.74,2,2,0,0,0,.91.21h8.82L10,27.36a2.73,2.73,0,0,0,0,3.85l4.32,4.32a2.72,2.72,0,0,0,3.85,0h0l1.91-1.91v8.83a2,2,0,0,0,2.95,1.83l8.39-4.2a4.07,4.07,0,0,0,2.25-3.65V27.56c6.17-3.94,10.88-9.22,10.88-17.94a30.15,30.15,0,0,0-.58-7ZM33.71,15.25a3.4,3.4,0,1,1,3.4-3.4A3.4,3.4,0,0,1,33.71,15.25Z"/></svg>