<svg id="Layer_1" data-name="Layer 1" xmlns="http://www.w3.org/2000/svg" viewBox="0 0 123.25 31.8"><defs><style>.cls-1{fill:#929497;}</style></defs><title>wht-turnkey-united</title><path class="cls-1" d="M17.43,13.46h4V14c-1.1.1-1.2.3-1.2,1.1v7.1a2.05,2.05,0,0,0,2.1,2.3,2.18,2.18,0,0,0,2.3-2.4v-6.9c0-.9-.3-1.2-1.3-1.3v-.5h3.2V14c-1,.1-1.3.4-1.3,1.3v6.6c0,2-.9,3.3-3.2,3.3s-3.4-1.3-3.4-3.3v-6.6c0-.9-.1-1.1-1.2-1.1Z"/><path class="cls-1" d="M26.23,24.76v-.5c.8,0,1.1-.3,1.1-.8v-5.2c0-.7-.2-.8-1.1-.9v-.5l2.4-.1v1.6h0a2.47,2.47,0,0,1,2.2-1.7c1.4,0,2,.9,2,2.3v4.4c0,.6.2.8,1,.8v.5h-2.4v-5.9c0-1.1-.4-1.5-1-1.5-.9,0-1.8,1.2-1.8,2.8v3.2c0,.5.3.8,1.1.8v.5h-3.5Z"/><path class="cls-1" d="M34.33,24.76v-.5c.8,0,1.1-.3,1.1-.8v-5.3c0-.7-.2-.8-1.1-.9v-.5l2.5-.1v6.7c0,.5.3.8,1.1.8v.5h-3.6Zm2.4-10.4c0,.6-.3,1.1-.8,1.1s-.8-.4-.8-1.1.3-1.1.8-1.1.8.4.8,1.1"/><path class="cls-1" d="M40.33,13.86v3h2v.6h-2v5.8c0,.7.2,1,.7,1s1-.3,1-2.1v-.5h.5v.8c0,1.7-.6,2.4-1.9,2.4-1.1,0-1.8-.7-1.8-2v-5.5h-1v-.5c1.2-.5,1.8-1.1,1.9-3.2h.6Z"/><path class="cls-1" d="M44.73,20.16c0-2.1.6-2.9,1.6-2.9s1.4.8,1.4,2.9Zm4.6.6c0-2.4-1.2-4.1-3-4.1s-3.2,1.7-3.2,4.1c0,2.1,1.4,4.2,3.4,4.2a2.82,2.82,0,0,0,2.8-2.9l-.5-.1c-.2,1.1-.7,2.4-2.1,2.4-1.1,0-1.9-1.3-1.9-3.6Z"/><path class="cls-1" d="M51.73,20.86c0-2.5.6-3.6,1.5-3.6s1.6,1.2,1.6,3.6c0,2.8-.9,3.6-1.7,3.6s-1.4-1-1.4-3.6m2.1-6.9c.9,0,1.1.1,1.1.9v3h0a1.91,1.91,0,0,0-1.7-1.1c-1.7,0-3,1.8-3,4.2,0,2.6,1.4,4.1,2.9,4.1a2,2,0,0,0,1.9-1.4h0v1.2l2.3-.1v-.5c-.7,0-1-.2-1-1.1v-9.7l-2.5.1Z"/><path class="cls-1" d="M57.73,24.76v-.5c1-.1,1.2-.3,1.2-1.1v-8c0-.9-.2-1.1-1.2-1.1v-.5h4V14c-1,.1-1.2.3-1.2,1.1v3.4h3.6v-3.4c0-.9-.2-1.1-1.2-1.1v-.5h4V14c-1,.1-1.2.3-1.2,1.1v8c0,.9.2,1.1,1.2,1.1v.5h-4v-.5c1-.1,1.2-.3,1.2-1.1v-4h-3.7v4c0,.9.2,1.1,1.2,1.1v.5h-3.9Z"/><path class="cls-1" d="M68.63,20.16c0-2.1.6-2.9,1.6-2.9s1.4.8,1.4,2.9Zm4.6.6c0-2.4-1.2-4.1-3-4.1s-3.2,1.7-3.2,4.1c0,2.1,1.4,4.2,3.4,4.2a2.82,2.82,0,0,0,2.8-2.9l-.5-.1c-.2,1.1-.7,2.4-2.1,2.4-1.1,0-1.9-1.3-1.9-3.6Z"/><path class="cls-1" d="M77.43,21.46c0,1.9-.8,2.9-1.6,2.9-.5,0-.9-.4-.9-1.3,0-1.4,1.2-2,2.5-2.5Zm2.3,1c0,1.2-.2,1.6-.5,1.6s-.3-.2-.3-.7v-4.6c0-1.2-.7-2.1-2.6-2.1a2.28,2.28,0,0,0-2.5,2c0,.7.3,1,.8,1s.8-.4.8-1-.2-.9-.7-.9a1.68,1.68,0,0,1,1.4-.6c.9,0,1.3.4,1.3,1.4V20c-1.4.5-4,1.3-4,3.2a1.81,1.81,0,0,0,2,1.9,2,2,0,0,0,2.1-1.3h0c.1.9.5,1.3,1.3,1.3,1,0,1.4-.7,1.4-2.5Z"/><path class="cls-1" d="M80,24.76v-.5c.8,0,1.1-.3,1.1-.8v-8.6c0-.6-.3-.9-1.1-.9v-.5l2.5-.1v10.1c0,.5.3.8,1.1.8v.5Z"/><path class="cls-1" d="M85.93,13.86v3h2v.6h-2v5.8c0,.7.3,1,.7,1,.6,0,1-.3,1-2.1v-.5h.5v.8c0,1.7-.6,2.4-1.9,2.4-1.1,0-1.8-.7-1.8-2v-5.5h-1v-.5c1.2-.5,1.8-1.1,1.9-3.2h.6Z"/><path class="cls-1" d="M88.13,24.76v-.5c.8,0,1.1-.3,1.1-.8v-8.6c0-.7-.2-.8-1.1-.9v-.5l2.5-.1v4.9h0a2.33,2.33,0,0,1,2.1-1.5,2.05,2.05,0,0,1,2.1,2.3v4.4c0,.5.3.8,1,.8v.5h-2.4V19c0-1.2-.4-1.5-1-1.5-.8,0-1.7,1.1-1.7,2.7v3.3c0,.5.3.8,1.1.8v.5Z"/><path class="cls-1" d="M101.93,22.06c-.1,1.6-.9,3-2.7,3s-3.2-1.5-3.2-3.9c0-2.1,1.4-4.4,3.4-4.4a2.13,2.13,0,0,1,2.3,2.2c0,.8-.2,1.2-.8,1.2s-.8-.4-.8-1,.2-1,.7-1c.1,0,.2.1.3.1h0a1.42,1.42,0,0,0-1.4-.9c-1.2,0-2.1,1.2-2.1,3.6,0,2.8.9,3.6,1.8,3.6,1.3,0,1.8-1.2,2-2.4Z"/><path class="cls-1" d="M106.53,21.46c0,1.9-.8,2.9-1.6,2.9-.5,0-.9-.4-.9-1.3,0-1.4,1.2-2,2.5-2.5Zm2.2,1.1c0,1.2-.2,1.6-.5,1.6s-.3-.2-.3-.7v-4.6c0-1.3-.7-2.1-2.6-2.1a2.28,2.28,0,0,0-2.5,2c0,.7.3,1,.8,1s.8-.4.8-1-.2-.9-.7-.9a1.68,1.68,0,0,1,1.4-.6c.9,0,1.3.4,1.3,1.4V20c-1.4.5-4.1,1.3-4.1,3.2a1.81,1.81,0,0,0,2,1.9,2,2,0,0,0,2.1-1.3h0c.1.9.5,1.3,1.3,1.3,1,0,1.4-.7,1.4-2.5Z"/><path class="cls-1" d="M109.53,24.76v-.5c.7,0,1-.3,1-.8V19c0-1.1-.2-1.5-1-1.5V17l2.3-.1v1.9h0c.2-.9.8-2,1.8-2a1.27,1.27,0,0,1,1.2,1.4c0,.7-.3,1.1-.8,1.1s-.7-.2-.7-1a.71.71,0,0,1,.7-.8.52.52,0,0,0-.4-.2c-1.1,0-1.6,2.4-1.6,3.9v2.4c0,.5.3.8,1.4.8v.5h-3.9Z"/><path class="cls-1" d="M116.33,20.16c0-2.1.6-3,1.6-3s1.4.8,1.4,3Zm4.6.6c0-2.4-1.2-4.1-3-4.1s-3.2,1.7-3.2,4.2c0,2.1,1.3,4.2,3.4,4.2,1.9,0,2.7-1.4,2.8-2.9l-.5-.2c-.2,1.1-.7,2.4-2.1,2.4-1.1,0-2-1.3-2-3.6Z"/><path class="cls-1" d="M121.53,14.86a1,1,0,0,1,1,1.1,1.1,1.1,0,0,1-1,1.1,1.18,1.18,0,0,1-1.1-1.1,1.11,1.11,0,0,1,1.1-1.1m0-.1a1.16,1.16,0,0,0-1.2,1.2,1.22,1.22,0,0,0,1.2,1.2,1.2,1.2,0,1,0,0-2.4m-.3,1.3h.2c.1,0,.2,0,.2.2a.75.75,0,0,0,.1.5h.2c0-.1-.1-.3-.1-.4,0-.3-.1-.3-.2-.4h0a.32.32,0,0,0,.3-.3.37.37,0,0,0-.4-.4h-.6v1.4h.2v-.6Zm0-.7h.3c.2,0,.2.1.2.2a.22.22,0,0,1-.2.2h-.3Z"/><path class="cls-1" d="M3,24.76H4l.1-.1h0l.1-.1h0l.1-.1h0l.1-.1h0l.1-.1h0a.1.1,0,0,1,.1-.1v-.1a.1.1,0,0,1,.1-.1v-.1a.1.1,0,0,1,.1-.1v-.1a.1.1,0,0,1,.1-.1v-.1a.1.1,0,0,1,.1-.1v-1c0-.1,0-.2.1-.2a27.47,27.47,0,0,0,.4-5.2V6.46l-5,2.7v10.5c0,4,.7,5,1.6,5.1H3Z"/><path class="cls-1" d="M4.33,25.86c2-.3,3.1-2.4,3.4-3.5a21.57,21.57,0,0,0,.5-5.4V5.36l-2.1,1.1,1.1.2V16a31.35,31.35,0,0,1-.4,5.9c-.6,2-1.5,2.8-2.2,3l-1.8-.2h0a1.53,1.53,0,0,0,1.1,1.1Z"/><path class="cls-1" d="M3.83,25.86a1.57,1.57,0,0,0,1.1,1h.5c2,0,3.4-2,3.9-3.1a17.63,17.63,0,0,0,1-6.9V4.26l-2.1,1.1,1.1.3v10.8a18.62,18.62,0,0,1-.8,6.7,4.41,4.41,0,0,1-2.9,2.9l-1.4-.2Z"/><path class="cls-1" d="M10.33,4.26l1.1.2v11.9c0,3.7-.4,6.2-1.2,7.9a4.72,4.72,0,0,1-3.3,2.8l-1.5-.2h-.5a2.1,2.1,0,0,0,1.8,1,4.79,4.79,0,0,0,2.6-.9c2.4-1.7,3.2-5.4,3.2-10.4V3.06Z"/></svg>