<svg id="Layer_1" data-name="Layer 1" xmlns="http://www.w3.org/2000/svg" viewBox="0 0 47 45.46"><defs><style>.cls-1{fill:#4168b1;}</style></defs><title>wht-turnkey-globe</title><path class="cls-1" d="M23.18,1A21.59,21.59,0,1,0,44.77,22.56,21.59,21.59,0,0,0,23.18,1ZM30.34,32.1l-1,1a2,2,0,0,0-.54.93c-.13.49-.24,1-.41,1.47l-1.52,4.08a17.36,17.36,0,0,1-3.71.4V37.58a6.49,6.49,0,0,0-2-4.46,2.78,2.78,0,0,1-.81-2V28.37A2.78,2.78,0,0,0,19,25.93c-1.25-.69-3-1.66-4.25-2.27A13,13,0,0,1,12,21.76l-.07-.06a10,10,0,0,1-1.57-1.8c-.82-1.2-2.15-3.17-3-4.45a17.5,17.5,0,0,1,9-8.87l2.09,1a1.39,1.39,0,0,0,2-1.24v-1a18.34,18.34,0,0,1,2.12-.21L25,7.65a1.38,1.38,0,0,1,0,2l-.41.4-.9.9a.71.71,0,0,0,0,1l.41.41a.69.69,0,0,1,0,1l-.69.7a.72.72,0,0,1-.5.2h-.78a.71.71,0,0,0-.49.2l-.86.84a.7.7,0,0,0-.14.81L22,18.76a.69.69,0,0,1-.62,1h-.49a.71.71,0,0,1-.46-.17l-.81-.7a1.38,1.38,0,0,0-1.35-.27l-2.71.9a1,1,0,0,0-.71,1,1,1,0,0,0,.57.93l1,.48a5.86,5.86,0,0,0,2.63.63c.92,0,2,2.37,2.79,2.78H27.6a2.75,2.75,0,0,1,2,.82l1.19,1.19a2.65,2.65,0,0,1,.78,1.88A4,4,0,0,1,30.34,32.1Zm7.55-8a2.13,2.13,0,0,1-1.23-.87l-1.57-2.35a2.12,2.12,0,0,1,0-2.32l1.71-2.55a2,2,0,0,1,.8-.71l1.13-.57a17.23,17.23,0,0,1,1.86,7.78,18.12,18.12,0,0,1-.16,2.22Z"/></svg>