<svg id="Layer_1" data-name="Layer 1" xmlns="http://www.w3.org/2000/svg" viewBox="0 0 94.94 31.8"><defs><style>.cls-1{fill:#929497;}</style></defs><title>wht-turnkey-kaiser</title><g id="Layer_1-2" data-name="Layer 1-2"><path class="cls-1" d="M17.36,8.48a2.66,2.66,0,0,0-1-.6l-.6,11.8,2.9-8.2A3,3,0,0,0,17.36,8.48Z"/><path class="cls-1" d="M12.56,7.78l1.7,11.8L16,7.78A5,5,0,0,0,12.56,7.78Z"/><path class="cls-1" d="M11.06,8.48a3.14,3.14,0,0,0-1.3,3.1l2.9,8.2-.5-11.9A2.38,2.38,0,0,0,11.06,8.48Z"/><path class="cls-1" d="M5.16,9.58c2,3.4,4,7.1,5.9,10.4-.7-2.9-1.4-7.7-2.4-9C7.56,9.38,5.16,9.58,5.16,9.58Z"/><path class="cls-1" d="M1.66,11.28l8,9.3-5-11A4.23,4.23,0,0,0,1.66,11.28Z"/><path class="cls-1" d="M18.56,13.88l-1.3,6.4c1.7-3,3.4-5.9,5.1-8.9C20.66,11.48,19.06,12.08,18.56,13.88Z"/><path class="cls-1" d="M22.76,11.28l-4.2,9.5,7.5-8.1A4.71,4.71,0,0,0,22.76,11.28Z"/><path class="cls-1" d="M.66,15.48c2.6,2,5.2,4.1,7.9,6.1l-7.1-10A6.72,6.72,0,0,0,.66,15.48Z"/><path class="cls-1" d="M26.86,13.78l-.6-.9-6.4,8.8c2.5-1.9,5-3.9,7.5-5.8A5.37,5.37,0,0,0,26.86,13.78Z"/><path class="cls-1" d="M.66,19.58l6.8,3.2c-2.2-2.2-4.6-4.5-6.8-6.7Z"/><path class="cls-1" d="M27.26,19.78v-3.2l-6.5,6.3C23.06,21.88,25.06,20.88,27.26,19.78Z"/><path class="cls-1" d="M.66,22.78c2.1.5,4.3,1,6.2,1.4l-6.2-4.1Z"/><path class="cls-1" d="M27.26,22.88v-2.5c-1.9,1.2-3.9,2.5-5.7,3.8Z"/><polygon class="cls-1" points="0.66 25.88 6.66 25.88 0.66 23.28 0.66 25.88"/><path class="cls-1" d="M27.26,25.88v-2.4c-2,.9-3.7,1.6-5.6,2.4Z"/><path class="cls-1" d="M25.26,8.18c.1-3.6-5.2-3.6-5.2,0C20.06,11.48,25.36,11.68,25.26,8.18Z"/><path class="cls-1" d="M8,6.28c.2-3.6-5.4-3.5-5.2,0C2.56,9.88,8.36,10,8,6.28Z"/><path class="cls-1" d="M14.26,7a2.81,2.81,0,0,0,3-2.9,2.8,2.8,0,0,0-3-3.2,2.73,2.73,0,0,0-2.9,3.2A2.71,2.71,0,0,0,14,7Z"/><rect class="cls-1" x="44.56" y="8.68" width="1.2" height="6.7"/><path class="cls-1" d="M42.36,13.48l.6,1.9h1.2l-2.3-6.7h-1.4l-2,5.7L36.56,12l2.6-3.3h-1.3l-2.4,3.2V8.68h-1.2v6.7h1.2v-3.3l2.5,3.3h1.4l.6-1.9Zm-1.3-3.7h0l.9,2.8h-1.8Z"/><path class="cls-1" d="M53.06,24l-1.2-4.9h-2v6.7H51v-5.7l1.5,5.7h1.2l1.5-5.7v5.7h1.1v-6.7h-2Z"/><path class="cls-1" d="M59.16,19.08l-2.3,6.7H58l.6-1.9h2.5l.6,1.9h1.2l-2.3-6.7Zm-.3,3.9.9-2.8h0l1,2.8Z"/><path class="cls-1" d="M67.66,24.28,65,19.08h-1.5v6.7h1.1v-5l2.6,5.1h1.6v-6.7h-1.1Z"/><path class="cls-1" d="M89.66,24.78h-2.8v-1.9h2v-1h-2V20h2.5V19h-3.7v6.7h3.9v-.9Z"/><path class="cls-1" d="M79.06,19.08h-.2v5.3l-2.7-5.2h-1.5v5.7h-3.5V23h2V22h-2v-1.9h2.5v-1H70v6.7h5.8v-5.1l2.6,5.1H80v-5.7h2v5.8h1.2v-5.7h2v-1h-6.1Z"/><path class="cls-1" d="M48.16,22.38a1.64,1.64,0,0,0,.6-1.4,1.82,1.82,0,0,0-.6-1.4,2.88,2.88,0,0,0-2-.5h-1.9v2.8h0v2.9h-3.6v-1.9h2v-1h-2V20h2.5V19h-3.7v6.7h5.9v-2.8H46c.5.8,1.7,2.9,1.7,2.9h1.4l-1.8-3A1.22,1.22,0,0,0,48.16,22.38Zm-2.7-.4v-1.9h1c.9,0,1.2.4,1.2.9a1.06,1.06,0,0,1-1.2,1Z"/><path class="cls-1" d="M57.56,12.48h.6c.5.8,1.7,2.9,1.7,2.9h1.4l-1.8-3a3.55,3.55,0,0,0,.9-.4,2,2,0,0,0,.6-1.4,1.82,1.82,0,0,0-.6-1.4,2.75,2.75,0,0,0-1.9-.5h-2v2.8h0v2.9h-3.6v-1.9h2v-1h-2V9.68h2.5v-1h-3.7v6.7h5.9Zm0-1V9.68h1c.9,0,1.2.3,1.2.9s-.4,1-1.2,1l-1-.1Z"/><path class="cls-1" d="M38.16,19.58a2.88,2.88,0,0,0-2-.5h-2v4h0v2.8h1.2v-2.8h.8a2.51,2.51,0,0,0,1.9-.5,2.08,2.08,0,0,0,.1-3Zm-1.7,2.5h-1v-2h1c.9,0,1.2.4,1.2,1s-.4,1-1.2,1Z"/><path class="cls-1" d="M51,13.48c0-1-.6-1.6-1.8-2-.9-.3-1.3-.6-1.3-1.1s.4-.9,1.2-.9a2.3,2.3,0,0,1,1.4.4v-1a3.19,3.19,0,0,0-1.4-.3c-1.4,0-2.4.8-2.4,1.9s.7,1.6,1.9,1.9c.9.3,1.2.6,1.2,1.1s-.5,1-1.3,1a3.74,3.74,0,0,1-1.8-.5v1.1a3.42,3.42,0,0,0,1.8.4C50.16,15.48,51,14.48,51,13.48Z"/><path class="cls-1" d="M90.56,24.38a1.1,1.1,0,1,1,1.1,1.1,1,1,0,0,1-1.1-1.1Zm1.1,1.4a1.4,1.4,0,1,0,0-2.8,1.4,1.4,0,0,0,0,2.8Zm-.2-1.3h.3l.4.7h.3l-.5-.7a.43.43,0,0,0,.4-.4h0c0-.3-.2-.5-.6-.5h-.6v1.6h.2Zm0-.2v-.5h.3c.2,0,.4,0,.4.2s-.2.3-.4.3Z"/></g></svg>