<svg id="Layer_1" data-name="Layer 1" xmlns="http://www.w3.org/2000/svg" viewBox="0 0 97.72 31.8"><defs><style>.cls-1{fill:#929497;}</style></defs><title>wht-turnkey-classpass</title><path class="cls-1" d="M53.13,22.53a2.8,2.8,0,0,1,0-.41V8.62h1.73l.19.64A11.23,11.23,0,0,1,57,8.41a4.61,4.61,0,0,1,5.48,3.32A6.06,6.06,0,0,1,62,16.34a4.82,4.82,0,0,1-1.25,1.48,4.65,4.65,0,0,1-1.75.84A4.56,4.56,0,0,1,55.28,18L55,17.74v4.89Zm1.85-9a8.75,8.75,0,0,0,.18,1.25A2.62,2.62,0,0,0,56,16.15a2.57,2.57,0,0,0,1.48.64,2.59,2.59,0,0,0,2.63-1.56,4.4,4.4,0,0,0,.28-2.77,2.59,2.59,0,0,0-.45-1.15,2.56,2.56,0,0,0-.93-.8,2.55,2.55,0,0,0-2.4,0,3.1,3.1,0,0,0-1.26,1.25A3,3,0,0,0,55,13.52Z"/><path class="cls-1" d="M.6,14.69l.27-1a5.15,5.15,0,0,1,1.76-2.45,5,5,0,0,1,2.85-1,5.66,5.66,0,0,1,3.32.94l-1,1.73a3.59,3.59,0,0,0-1.5-.68,3.54,3.54,0,0,0-1.65.08A2.87,2.87,0,0,0,3.22,13.4a3.72,3.72,0,0,0,0,4.2c1,1.22,2.31,1.33,4.61.41l.92,1.64a4.82,4.82,0,0,1-2.3,1A5.15,5.15,0,0,1,1,17.6,10.78,10.78,0,0,1,.5,16.21Z"/><path class="cls-1" d="M52.54,23.87H50a1.11,1.11,0,0,0-.44,0,1.47,1.47,0,0,0-.39.21,1,1,0,0,0-.27.35,1.06,1.06,0,0,0-.12.42c-.18.83-.34,1.66-.5,2.49a1.58,1.58,0,0,1-.56,1,1.53,1.53,0,0,1-1.1.34h-4a11.19,11.19,0,0,1-10.95-8.5A10.16,10.16,0,0,1,35,9.88,11.49,11.49,0,0,1,42.9,7h5.26c.87,0,1.15-.26,1.33-1.13L50,3.52a1.55,1.55,0,0,1,1.68-1.33H56A11.7,11.7,0,0,1,63.32,5.8a10.24,10.24,0,0,1,2.79,5.35,10.61,10.61,0,0,1-.23,4.45,10.39,10.39,0,0,1-2.08,3.94,11.41,11.41,0,0,1-3.43,2.9,11.56,11.56,0,0,1-4.29,1.34C55,23.92,52.54,23.85,52.54,23.87Zm-7.1-12.72H43.13a7.83,7.83,0,0,0-3.87,1,6.4,6.4,0,0,0-3.2,7.81,6.78,6.78,0,0,0,4.61,4.15,21.09,21.09,0,0,0,6.24.39,1,1,0,0,0,.56-.25.88.88,0,0,0,.27-.56c.19-.92.37-1.84.58-2.76a1.43,1.43,0,0,1,1.45-1.13h4.42a10,10,0,0,0,3.39-.58,6.43,6.43,0,0,0,4.22-8,6.72,6.72,0,0,0-5.16-4.61,18.47,18.47,0,0,0-5-.3,1.06,1.06,0,0,0-.6.27,1.08,1.08,0,0,0-.3.59c-.2.9-.39,1.77-.57,2.67a1.58,1.58,0,0,1-.56,1,1.56,1.56,0,0,1-1.1.34Z"/><path class="cls-1" d="M25.78,11.39c0-.92.56-.83,1.11-.81s.53,0,.83,0v9.77H26l-.21-.67a10.58,10.58,0,0,1-2,.83,4.38,4.38,0,0,1-5-2.3A5.66,5.66,0,0,1,19.26,12a4.54,4.54,0,0,1,1.31-1.16,4.66,4.66,0,0,1,1.66-.56,4.48,4.48,0,0,1,1.75.11,4.62,4.62,0,0,1,1.57.78ZM20.3,15.47a3,3,0,0,0,.14,1.1,2.75,2.75,0,0,0,.83,1.57,2.83,2.83,0,0,0,1.61.74,2.55,2.55,0,0,0,1.61-.43,2.62,2.62,0,0,0,1-1.32,4.1,4.1,0,0,0,.13-2.59,2.66,2.66,0,0,0-1.66-2,2.62,2.62,0,0,0-2.6.4,3.2,3.2,0,0,0-1.17,2.51Z"/><path class="cls-1" d="M73.48,11.34l.23-.76h1.73v9.74H73.71l-.21-.62a11.15,11.15,0,0,1-1.91.83,4.58,4.58,0,0,1-2.76-.23,4.64,4.64,0,0,1-2.12-1.77,5.93,5.93,0,0,1,.37-6.69,4.66,4.66,0,0,1,3-1.54,4.59,4.59,0,0,1,3.23.88Zm0,4.14a10,10,0,0,0-.16-1.08,2.77,2.77,0,0,0-.87-1.59,2.71,2.71,0,0,0-1.66-.71,2.56,2.56,0,0,0-1.35.36,2.61,2.61,0,0,0-1,1,4.3,4.3,0,0,0-.32,2.93,2.67,2.67,0,0,0,4.22,1.72,3.27,3.27,0,0,0,.89-1.22,3.31,3.31,0,0,0,.26-1.49Z"/><path class="cls-1" d="M79.33,19.56,80.21,18a20.7,20.7,0,0,0,2.3.65,2.48,2.48,0,0,0,1.39-.26.8.8,0,0,0,.37-.31.86.86,0,0,0,0-.94.8.8,0,0,0-.37-.31,10.86,10.86,0,0,0-1.57-.56A4.22,4.22,0,0,1,80,15a2.83,2.83,0,0,1-.54-1.33,2.94,2.94,0,0,1,2.26-3.27,6.27,6.27,0,0,1,4.31.64l-.87,1.59c-.86-.16-1.62-.34-2.31-.44a2.07,2.07,0,0,0-.94.26.83.83,0,0,0-.36.31.88.88,0,0,0,0,.92.9.9,0,0,0,.36.31c.48.23,1,.32,1.52.53a10.63,10.63,0,0,1,1.91.88,2.53,2.53,0,0,1,.92,1.24,2.61,2.61,0,0,1,0,1.54,3,3,0,0,1-.72,1.47,2.89,2.89,0,0,1-1.4.84A6,6,0,0,1,79.91,20l-.34-.16Z"/><path class="cls-1" d="M31.5,19.71,32.44,18l.78.35a4,4,0,0,0,2.42.36,1.09,1.09,0,0,0,.64-.3,1.11,1.11,0,0,0,.33-.62,1,1,0,0,0-.78-1c-.6-.21-1.34-.42-2-.65a3,3,0,0,1-2.09-2.3,2.94,2.94,0,0,1,.33-2,3,3,0,0,1,1.51-1.33,5.18,5.18,0,0,1,3.3,0c.46.14.92.35,1.45.53l-.9,1.61c-.85-.16-1.61-.34-2.31-.43a1.77,1.77,0,0,0-.92.23.81.81,0,0,0-.35.31.83.83,0,0,0,0,.92.88.88,0,0,0,.35.31,14.57,14.57,0,0,0,1.52.55,8.16,8.16,0,0,1,2,1,2.93,2.93,0,0,1,.84,1.29,2.88,2.88,0,0,1,.06,1.54,2.93,2.93,0,0,1-2.08,2.13,6.5,6.5,0,0,1-5-.76Z"/><path class="cls-1" d="M90,19.69l1-1.75,1,.46a3.68,3.68,0,0,0,2.17.26,1.16,1.16,0,0,0,.61-.29,1.12,1.12,0,0,0,.33-.59c0-.51,0-.83-.71-1.06s-1.29-.39-1.91-.6A3,3,0,0,1,91,15.41a3,3,0,0,1-.88-1.34,2.91,2.91,0,0,1-.07-1.21,2.93,2.93,0,0,1,1.25-2,3,3,0,0,1,1.13-.47,6.29,6.29,0,0,1,4.21.67l-.87,1.61c-.76-.19-1.53-.34-2.31-.46a1.76,1.76,0,0,0-.87.19.77.77,0,0,0-.42.31.87.87,0,0,0-.16.49.79.79,0,0,0,.53.83c.37.16.74.28,1.11.42a11.71,11.71,0,0,1,1.79.67,2.57,2.57,0,0,1,1.16,1.05A2.72,2.72,0,0,1,97,17.67a2.8,2.8,0,0,1-1.52,2.49,4.89,4.89,0,0,1-1.79.5,4.64,4.64,0,0,1-1.85-.25C91.27,20.22,90.65,20,90,19.69Z"/><path class="cls-1" d="M49,11l-.9,1.59c-.82-.16-1.56-.32-2.3-.44a2.07,2.07,0,0,0-.78.14.92.92,0,0,0-.47.33.91.91,0,0,0-.2.53.81.81,0,0,0,.15.52.87.87,0,0,0,.45.33l1.77.57a3.35,3.35,0,0,1,1.35.63,3.44,3.44,0,0,1,1,1.15,3.08,3.08,0,0,1,.25,1.34A3,3,0,0,1,48.87,19a3.1,3.1,0,0,1-.92,1,3.05,3.05,0,0,1-1.27.5,7,7,0,0,1-4.61-.92L43,18c.83.23,1.57.5,2.3.64a2.54,2.54,0,0,0,1.36-.23.77.77,0,0,0,.38-.31.86.86,0,0,0,0-.94.77.77,0,0,0-.38-.31A10.31,10.31,0,0,0,45,16.31a4.63,4.63,0,0,1-2.14-1.13,2.92,2.92,0,0,1-.6-2.62,2.87,2.87,0,0,1,.67-1.22,2.92,2.92,0,0,1,1.15-.77,5.55,5.55,0,0,1,3.89.16Z"/><path class="cls-1" d="M14.42,22.83H12.65a1.11,1.11,0,0,1-.26-.27,2.28,2.28,0,0,1,0-.37V8.09h2Z"/></svg>