<svg id="Layer_1" data-name="Layer 1" xmlns="http://www.w3.org/2000/svg" viewBox="0 0 88.36 31.8"><defs><style>.cls-1{fill:#929497;}</style></defs><title>wht-turnkey-onemedical</title><g id="Symbols"><g id="Logos_Navy_OneMedical" data-name="Logos/Navy/OneMedical"><g id="OneMedical_grey" data-name="OneMedical grey"><g id="one-medical-logo"><path id="Fill-1" class="cls-1" d="M45.13,8.51a3.34,3.34,0,0,1,3.22-2.44,3,3,0,0,1,2.92,2.44Zm7.51.63a4.27,4.27,0,0,0-4.18-4.33,4.61,4.61,0,1,0,3.74,7.13.26.26,0,0,0-.09-.35l-.66-.39a.26.26,0,0,0-.33.07A3.34,3.34,0,0,1,45,9.76h7.35a.26.26,0,0,0,.26-.25Z"/><path id="Fill-3" class="cls-1" d="M41.62,20.56a3.33,3.33,0,0,1,3.22-2.43,3,3,0,0,1,2.93,2.43Zm7.51.63A4.27,4.27,0,0,0,45,16.87,4.6,4.6,0,1,0,48.69,24a.25.25,0,0,0-.09-.35l-.66-.38a.25.25,0,0,0-.33.07,3.34,3.34,0,0,1-6.09-1.51h7.36a.25.25,0,0,0,.25-.25Z"/><path id="Fill-5" class="cls-1" d="M32.33,9.4a3.38,3.38,0,0,0-6.76,0,3.38,3.38,0,1,0,6.76,0m-8,0A4.47,4.47,0,0,1,29,4.81,4.47,4.47,0,0,1,33.58,9.4a4.63,4.63,0,1,1-9.26,0"/><path id="Fill-7" class="cls-1" d="M36,13.86H35a.12.12,0,0,1-.12-.12V5.13A.13.13,0,0,1,35,5h1a.13.13,0,0,1,.13.13V6.46a3.3,3.3,0,0,1,2.94-1.65c2.16,0,3.43,1.48,3.42,3.89v5a.13.13,0,0,1-.13.13h-1a.13.13,0,0,1-.13-.13v-5c0-1.63-.77-2.64-2.14-2.64a2.76,2.76,0,0,0-2.94,3v4.72a.12.12,0,0,1-.12.12"/><path id="Fill-9" class="cls-1" d="M32.4,25.92h-1a.16.16,0,0,1-.16-.16v-5c0-1.63-.77-2.64-2.14-2.64a2.76,2.76,0,0,0-2.94,3v4.67a.17.17,0,0,1-.17.17H25.1a.17.17,0,0,1-.17-.17V17.24a.18.18,0,0,1,.18-.18H26a.18.18,0,0,1,.18.18v1.28a3.51,3.51,0,0,1,2.94-1.65,3.09,3.09,0,0,1,3.07,1.93,3.47,3.47,0,0,1,3.29-1.93c2.16,0,3.43,1.48,3.41,3.89v5a.18.18,0,0,1-.17.17h-.93a.17.17,0,0,1-.17-.17v-5c0-1.63-.78-2.64-2.14-2.64a2.76,2.76,0,0,0-2.94,3v4.68a.16.16,0,0,1-.16.16"/><path id="Fill-11" class="cls-1" d="M54.83,24.84a3.2,3.2,0,0,0,3.34-3.38,3.26,3.26,0,0,0-3.34-3.32,3.15,3.15,0,0,0-3.26,3.32,3.23,3.23,0,0,0,3.26,3.38m4.49,1.08h-1a.12.12,0,0,1-.11-.12V24.4a3.91,3.91,0,0,1-3.34,1.71,4.43,4.43,0,0,1-4.53-4.65,4.38,4.38,0,0,1,4.53-4.59,3.86,3.86,0,0,1,3.34,1.65V13a.14.14,0,0,1,.14-.14h1a.14.14,0,0,1,.14.14V25.8a.12.12,0,0,1-.12.12"/><path id="Fill-13" class="cls-1" d="M62.58,17.06h-1a.13.13,0,0,0-.13.13V25.8a.12.12,0,0,0,.12.12h1a.12.12,0,0,0,.12-.12V17.19a.13.13,0,0,0-.14-.13"/><path id="Fill-15" class="cls-1" d="M69,24.85a3.29,3.29,0,0,1-3.38-3.39A3.25,3.25,0,0,1,69,18.12a3.53,3.53,0,0,1,2.06.65.11.11,0,0,0,.18-.05,6.85,6.85,0,0,1,.47-.89.12.12,0,0,0,0-.16,4.78,4.78,0,0,0-2.68-.8,4.46,4.46,0,0,0-4.63,4.59A4.51,4.51,0,0,0,69,26.11a4.78,4.78,0,0,0,2.72-.83.12.12,0,0,0,0-.16,6.12,6.12,0,0,1-.49-.91.11.11,0,0,0-.17,0,3.44,3.44,0,0,1-2.09.68"/><path id="Fill-17" class="cls-1" d="M77.05,24.84a3.23,3.23,0,0,1-3.26-3.38,3.15,3.15,0,0,1,3.26-3.32,3.26,3.26,0,0,1,3.34,3.32,3.2,3.2,0,0,1-3.34,3.38Zm3.34-6.32a3.86,3.86,0,0,0-3.34-1.65,4.39,4.39,0,0,0-4.54,4.59,4.44,4.44,0,0,0,4.54,4.65,3.91,3.91,0,0,0,3.34-1.71v1.4a.12.12,0,0,0,.12.12h1a.13.13,0,0,0,.12-.12V17.18a.12.12,0,0,0-.13-.12h-1a.12.12,0,0,0-.12.12Z"/><path id="Fill-19" class="cls-1" d="M84.82,25.92h-1a.12.12,0,0,1-.11-.12V13a.12.12,0,0,1,.12-.12h1a.12.12,0,0,1,.12.12V25.8a.12.12,0,0,1-.12.12"/><path id="Fill-21" class="cls-1" d="M63,13.8a.91.91,0,1,1-.91-.91.9.9,0,0,1,.91.91"/><path id="Fill-23" class="cls-1" d="M13.79,15.46a2.89,2.89,0,1,1-2.88-2.88,2.88,2.88,0,0,1,2.88,2.88"/><path id="Fill-25" class="cls-1" d="M13.79,8.45a2.89,2.89,0,1,1-2.88-2.88,2.88,2.88,0,0,1,2.88,2.88"/><path id="Fill-27" class="cls-1" d="M13.79,22.47a2.89,2.89,0,1,1-2.88-2.88,2.88,2.88,0,0,1,2.88,2.88"/><path id="Fill-29" class="cls-1" d="M17.92,18.34a2.88,2.88,0,1,1,2.88-2.88,2.88,2.88,0,0,1-2.88,2.88"/><path id="Fill-31" class="cls-1" d="M3.9,18.34a2.88,2.88,0,1,1,2.88-2.88A2.88,2.88,0,0,1,3.9,18.34"/><polygon id="Fill-33" class="cls-1" points="85.64 12.89 86.37 12.89 86.37 13.03 86.08 13.03 86.08 13.86 85.93 13.86 85.93 13.03 85.64 13.03 85.64 12.89"/><polygon id="Fill-35" class="cls-1" points="87.37 12.89 87.51 12.89 87.62 13.86 87.47 13.86 87.39 13.17 87.11 13.75 86.98 13.75 86.69 13.17 86.61 13.86 86.46 13.86 86.58 12.89 86.71 12.89 87.04 13.58 87.37 12.89"/></g></g></g></g></svg>