<svg id="Layer_1" data-name="Layer 1" xmlns="http://www.w3.org/2000/svg" viewBox="0 0 116.54 31.8"><defs><style>.cls-1{fill:#929497;}</style></defs><title>wht-turnkey-metlife</title><g id="Page-1"><g id="metlife_eng_logo_one-color" data-name="metlife eng logo one-color"><g id="Group"><path id="Shape" class="cls-1" d="M91.84,11a2,2,0,1,1,2-2A2,2,0,0,1,91.84,11Zm-56,12.8h3.5l.4-10.6,3.6,6.3h1.9l3.4-6.4.5,10.7h3.7L52,7.48h-3.5l-4.2,7.7L40,7.48h-3.5Zm28.4-3.5c-.3.2-.7.4-1.2.7a4.81,4.81,0,0,1-2.2.4,3.07,3.07,0,0,1-2.2-.7,2.25,2.25,0,0,1-.8-1.6H66v-.6a8,8,0,0,0-.4-2.7,5.29,5.29,0,0,0-1.1-2.1,6.23,6.23,0,0,0-1.8-1.4,6,6,0,0,0-2.4-.5,6.55,6.55,0,0,0-2.5.5,6.41,6.41,0,0,0-1.9,1.3,7.61,7.61,0,0,0-1.2,1.9,5.87,5.87,0,0,0-.4,2.3,6.9,6.9,0,0,0,.4,2.5,5.16,5.16,0,0,0,1.2,1.9,5.78,5.78,0,0,0,2,1.3,7.51,7.51,0,0,0,2.6.5,12.31,12.31,0,0,0,2-.2,5.27,5.27,0,0,0,1.5-.5l1-.5a5.92,5.92,0,0,0,.6-.4Zm-6.5-3.4a1.85,1.85,0,0,1,.2-.7,1.79,1.79,0,0,1,.5-.7,2.18,2.18,0,0,1,.8-.5,3.13,3.13,0,0,1,2.2,0,1.79,1.79,0,0,1,.7.5,1.61,1.61,0,0,1,.4.7,2,2,0,0,1,.1.7Zm20.1,6.9h10.7v-3h-7V7.48h-3.7Zm12.3,0h3.5V12.38H90v11.4Zm15.4-15.5a5.56,5.56,0,0,0-1.7-.9,6.28,6.28,0,0,0-1.9-.3,4.67,4.67,0,0,0-1.7.3,3.77,3.77,0,0,0-1.5.9,5.83,5.83,0,0,0-1.1,1.5,4.64,4.64,0,0,0-.4,2.1v.6h-1.9v2.6h1.9v8.7h3.5v-8.7h2.7v-2.7h-2.7v-.7a1.7,1.7,0,0,1,.4-1.3,1.66,1.66,0,0,1,1.2-.5,2.77,2.77,0,0,1,.9.1,2,2,0,0,1,.8.4ZM75,20.78a2.51,2.51,0,0,1-.7.4,2.92,2.92,0,0,1-.9.2,1.1,1.1,0,0,1-1-.5,2.27,2.27,0,0,1-.3-1.3v-4.5h3v-2.7h-3V9.28h-3.5v3.1h-1.9v2.7h1.8v4.3a12.31,12.31,0,0,0,.2,2,3.48,3.48,0,0,0,.7,1.5,4.49,4.49,0,0,0,1.3,1,6,6,0,0,0,2.1.4,5.51,5.51,0,0,0,3.6-1.3Zm39-.5c-.3.2-.7.4-1.2.7a4.81,4.81,0,0,1-2.2.4,3.07,3.07,0,0,1-2.2-.7,2.25,2.25,0,0,1-.8-1.6h8.2v-.6a8,8,0,0,0-.4-2.7,5.29,5.29,0,0,0-1.1-2.1,6.23,6.23,0,0,0-1.8-1.4,6,6,0,0,0-2.4-.5,6.55,6.55,0,0,0-2.5.5,6.41,6.41,0,0,0-1.9,1.3,7.61,7.61,0,0,0-1.2,1.9,5.87,5.87,0,0,0-.4,2.3,6.9,6.9,0,0,0,.4,2.5,5.16,5.16,0,0,0,1.2,1.9,5.78,5.78,0,0,0,2,1.3,7.51,7.51,0,0,0,2.6.5,12.31,12.31,0,0,0,2-.2,5.27,5.27,0,0,0,1.5-.5l1-.5a5.92,5.92,0,0,0,.6-.4Zm-6.5-3.4a1.85,1.85,0,0,1,.2-.7,1.79,1.79,0,0,1,.5-.7,2.18,2.18,0,0,1,.8-.5,3.13,3.13,0,0,1,2.2,0,1.79,1.79,0,0,1,.7.5,1.61,1.61,0,0,1,.4.7,2,2,0,0,1,.1.7Z"/><path id="Shape-2" data-name="Shape" class="cls-1" d="M25.94,3.08a21.65,21.65,0,0,0-11.8,8,22.19,22.19,0,0,0-11.8-8,1.3,1.3,0,0,0-1.6,1.3v22.2A1.32,1.32,0,0,0,2,27.88h24.3a1.32,1.32,0,0,0,1.3-1.3V4.38A1.42,1.42,0,0,0,25.94,3.08Z"/></g></g></g></svg>