<svg id="Layer_1" data-name="Layer 1" xmlns="http://www.w3.org/2000/svg" viewBox="0 0 194.4 63.31"><defs><style>.cls-1{fill:#fff;}</style></defs><title>wht-turnkey-logo</title><path class="cls-1" d="M45.71,54.44c2.77,0,4.4,1.55,4.4,3.54s-1.63,3.48-4.4,3.48S41.32,59.91,41.32,58,43,54.44,45.71,54.44Zm0,5.78a2.28,2.28,0,1,0,0-4.54,2.27,2.27,0,1,0,0,4.54Z"/><path class="cls-1" d="M51.45,54.6h6.28v1.24H53.41v1.55h3.75v1.14H53.41V61.3h-2Z"/><path class="cls-1" d="M58.87,54.6h6.28v1.24H60.84v1.55h3.74v1.14H60.84V61.3h-2Z"/><path class="cls-1" d="M66.29,54.6h2v6.7h-2Z"/><path class="cls-1" d="M75.94,56.85a1.88,1.88,0,0,0-2-1.17,2.28,2.28,0,1,0,0,4.54,1.83,1.83,0,0,0,2-1.5h1.9c-.2,1.67-1.74,2.74-3.93,2.74-2.77,0-4.39-1.55-4.39-3.48s1.62-3.54,4.39-3.54c2,0,3.62.86,3.86,2.41Z"/><path class="cls-1" d="M79.26,54.6h6.68v1.24H81.23v1.44h4.33v1.14H81.23v1.64H86V61.3H79.26Z"/><path class="cls-1" d="M92.19,59.08c0,.89.93,1.24,2,1.24.69,0,1.74-.15,1.74-.84s-1.34-.84-2.66-1.11-2.66-.64-2.66-1.9,1.73-2,3.34-2c1.87,0,3.58.61,3.58,2.16h-1.9c-.07-.81-.83-1-1.77-1-.62,0-1.35.19-1.35.76s.43.58,2.67,1c.65.12,2.65.43,2.65,2,0,1.23-1.29,2.15-3.72,2.15-2,0-3.83-.73-3.8-2.38Z"/><path class="cls-1" d="M103,54.44c2.77,0,4.39,1.55,4.39,3.54s-1.62,3.48-4.39,3.48S98.59,59.91,98.59,58,100.21,54.44,103,54.44Zm0,5.78A2.28,2.28,0,1,0,100.55,58,2.17,2.17,0,0,0,103,60.22Z"/><path class="cls-1" d="M108.71,54.6h2v5.46H115V61.3h-6.32Z"/><path class="cls-1" d="M123.72,58.77c0,1.81-1.43,2.69-3.82,2.69s-3.8-.87-3.8-2.69V54.6h2v4.17c0,.73.25,1.45,1.84,1.45,1.4,0,1.86-.46,1.86-1.45V54.6h2Z"/><path class="cls-1" d="M127.39,55.84h-2.68V54.6H132v1.24h-2.68V61.3h-2Z"/><path class="cls-1" d="M133.06,54.6h2v6.7h-2Z"/><path class="cls-1" d="M140.76,54.44c2.76,0,4.39,1.55,4.39,3.54s-1.63,3.48-4.39,3.48-4.4-1.55-4.4-3.48S138,54.44,140.76,54.44Zm0,5.78a2.27,2.27,0,1,0,0-4.54,2.28,2.28,0,1,0,0,4.54Z"/><path class="cls-1" d="M146.49,54.6h1.95l3.73,4.5h0V54.6H154v6.7h-2l-3.72-4.48h0V61.3h-1.84Z"/><path class="cls-1" d="M157.1,59.08c0,.89.93,1.24,2,1.24.69,0,1.74-.15,1.74-.84s-1.34-.84-2.65-1.11-2.67-.64-2.67-1.9,1.73-2,3.34-2c1.87,0,3.58.61,3.58,2.16h-1.9c-.06-.81-.83-1-1.76-1-.63,0-1.36.19-1.36.76s.43.58,2.67,1c.65.12,2.65.43,2.65,2,0,1.23-1.29,2.15-3.71,2.15-2,0-3.83-.73-3.81-2.38Z"/><rect class="cls-1" x="3.29" y="54.38" width="34.3" height="1.73"/><rect class="cls-1" x="3.29" y="57.05" width="34.3" height="1.73"/><rect class="cls-1" x="3.29" y="59.72" width="34.3" height="1.73"/><polygon class="cls-1" points="29.86 20.27 29.86 13.19 3.56 13.19 3.56 20.27 13.18 20.27 13.18 39.46 20.24 39.46 20.24 20.27 29.86 20.27"/><rect class="cls-1" x="13.18" y="39.46" width="7.06" height="12.01"/><path class="cls-1" d="M46.34,23.75V38.28c0,.41,0,.8,0,1.18h6.42V23.75Z"/><path class="cls-1" d="M41.39,46.21c-3,0-4.08-2.23-4.09-6.75H30.91V40.8c0,6.86,1.71,11.41,8.5,11.41a8.06,8.06,0,0,0,7.11-4.61h.13v3.86h6.08v-12H46.31C46.11,44.23,44.6,46.21,41.39,46.21Z"/><path class="cls-1" d="M37.3,39.4V23.75H30.91V39.46H37.3Z"/><rect class="cls-1" x="60.51" y="39.46" width="6.39" height="12.01"/><path class="cls-1" d="M73.19,30.08a9.88,9.88,0,0,1,2.29.26V23.27A4,4,0,0,0,74.09,23c-3.11,0-6.25,2.41-7.42,5.9h-.09V23.75H60.51V39.46h6.38V39C66.89,34.1,68.51,30.08,73.19,30.08Z"/><path class="cls-1" d="M93.13,23A8,8,0,0,0,86,27.61h-.14V23.75H79.82V39.46h6.39V36.94c0-5.63,1.48-7.94,4.94-7.94,3,0,4.09,2.26,4.09,6.81v3.65h6.39v-5C101.63,27.56,99.92,23,93.13,23Z"/><rect class="cls-1" x="95.24" y="39.46" width="6.39" height="12.01"/><rect class="cls-1" x="79.82" y="39.46" width="6.39" height="12.01"/><path class="cls-1" d="M139.56,13.19h-8.82L118.19,29.06v-10h.54V16.7a4.41,4.41,0,0,0,.12-8.57A4.16,4.16,0,0,0,119,7a4.41,4.41,0,1,0-8.81,0,4.54,4.54,0,0,0,.16,1.18,4.41,4.41,0,0,0,.2,8.58V19.1h.56V39.46h7.06v-.32l4-4.88,2.92,5.2h8.47L127,28.31Zm-25,2.29.27.25h-.53Zm5-3.08a1.9,1.9,0,1,1-1.9-1.89A1.89,1.89,0,0,1,119.66,12.4Zm-5-7.35a1.9,1.9,0,1,1,0,3.79,1.92,1.92,0,0,1-.89-.22l0,0a1.92,1.92,0,0,1-1-1.65A1.9,1.9,0,0,1,114.61,5.05Zm-5,7.35a1.89,1.89,0,0,1,1.89-1.89,1.93,1.93,0,0,1,.9.22l0,0a1.89,1.89,0,1,1-2.83,1.65Z"/><polygon class="cls-1" points="131.91 51.46 140.77 51.46 133.63 39.46 125.16 39.46 131.91 51.46"/><polygon class="cls-1" points="111.13 39.46 111.13 40.15 107.47 40.15 107.47 42.1 111.13 42.1 111.13 44.28 107.47 44.28 107.47 46.23 111.13 46.23 111.13 48.52 107.47 48.52 107.47 51.01 111.13 51.01 114.29 54.15 118.19 51.01 118.19 39.46 111.13 39.46"/><path class="cls-1" d="M153.7,52.21c5.75,0,9.93-2.78,11.89-9.32h-6.14c-.44,1.71-2.71,3.59-5.51,3.59-3.88,0-6-2.2-6.24-7h-6.9C141.46,47.05,146.27,52.21,153.7,52.21Z"/><polygon class="cls-1" points="191.72 23.75 185.11 23.75 180.9 39.46 186.83 39.46 191.72 23.75"/><path class="cls-1" d="M180.9,39.46,180,42.73h-.09L179,39.46h-6.24L176,49.75c.72,2.2,0,4.93-2.21,5.2-1.26,0-2.52-.16-5-.27V61c2.58.16,3.89.27,5.19.27,4.41,0,6.61-1.82,8-6.27l4.82-15.49Z"/><polygon class="cls-1" points="174.68 23.75 167.84 23.75 172.79 39.46 179.03 39.46 174.68 23.75"/><path class="cls-1" d="M153.7,23h0v5.74c3.26.08,4.74,2.11,5.37,5.89H147.7c.1-2.14,1.38-5.89,5.8-5.89h.19V23c-7.71,0-13,6.33-13,14.63,0,.63,0,1.23.08,1.83H166C166.53,30.93,162.35,23,153.7,23Z"/></svg>