<svg id="Layer_1" data-name="Layer 1" xmlns="http://www.w3.org/2000/svg" viewBox="0 0 136.26 45.46"><defs><style>.cls-1{fill:#fff;}</style></defs><title>wht-turnkey-logo-small</title><polygon class="cls-1" points="19.98 14.83 19.98 9.85 1.47 9.85 1.47 14.83 8.24 14.83 8.24 28.33 13.2 28.33 13.2 14.83 19.98 14.83"/><rect class="cls-1" x="8.24" y="28.33" width="4.97" height="8.45"/><path class="cls-1" d="M31.57,17.28V27.5c0,.29,0,.56,0,.83h4.51v-11Z"/><path class="cls-1" d="M28.08,33.08c-2.07,0-2.87-1.57-2.87-4.75h-4.5v.94c0,4.83,1.21,8,6,8a5.66,5.66,0,0,0,5-3.24h.1v2.72h4.27V28.33H31.55C31.4,31.69,30.34,33.08,28.08,33.08Z"/><path class="cls-1" d="M25.21,28.29v-11h-4.5v11h4.5Z"/><rect class="cls-1" x="41.53" y="28.33" width="4.49" height="8.45"/><path class="cls-1" d="M50.45,21.73a6.61,6.61,0,0,1,1.62.19v-5a3,3,0,0,0-1-.19,5.86,5.86,0,0,0-5.22,4.15H45.8V17.28H41.53v11H46V28C46,24.56,47.16,21.73,50.45,21.73Z"/><path class="cls-1" d="M64.48,16.75a5.66,5.66,0,0,0-5,3.24h-.1V17.28H55.12v11h4.49V26.56c0-4,1-5.58,3.48-5.58C65.18,21,66,22.56,66,25.76v2.57h4.49V24.78C70.46,20,69.26,16.75,64.48,16.75Z"/><rect class="cls-1" x="65.97" y="28.33" width="4.49" height="8.45"/><rect class="cls-1" x="55.12" y="28.33" width="4.49" height="8.45"/><path class="cls-1" d="M97.15,9.85H91L82.12,21V14h.37V12.32a3.1,3.1,0,0,0,.09-6,2.82,2.82,0,0,0,.12-.83,3.1,3.1,0,0,0-6.2,0,3.2,3.2,0,0,0,.11.83,3.1,3.1,0,0,0,.14,6V14h.4V28.33h5V28.1L85,24.67l2,3.66h6l-4.66-7.85ZM79.6,11.46a1.54,1.54,0,0,0,.19.17h-.38A1.54,1.54,0,0,0,79.6,11.46Zm3.55-2.17A1.34,1.34,0,1,1,81.82,8,1.34,1.34,0,0,1,83.15,9.29ZM79.6,4.13A1.33,1.33,0,1,1,79,6.63h0a1.33,1.33,0,0,1,.66-2.49ZM76.05,9.29a1.33,1.33,0,0,1,2-1.17l0,0a1.33,1.33,0,0,1,.68,1.15,1.34,1.34,0,1,1-2.67,0Z"/><polygon class="cls-1" points="91.77 36.78 98 36.78 92.98 28.33 87.02 28.33 91.77 36.78"/><polygon class="cls-1" points="77.15 28.33 77.15 28.82 74.57 28.82 74.57 30.19 77.15 30.19 77.15 31.72 74.57 31.72 74.57 33.09 77.15 33.09 77.15 34.71 74.57 34.71 74.57 36.46 77.15 36.46 79.37 38.66 82.12 36.46 82.12 28.33 77.15 28.33"/><path class="cls-1" d="M107.1,37.3c4,0,7-2,8.36-6.56h-4.32a4,4,0,0,1-3.87,2.53c-2.73,0-4.25-1.55-4.39-4.94H98C98.49,33.67,101.87,37.3,107.1,37.3Z"/><polygon class="cls-1" points="133.85 17.28 129.2 17.28 126.24 28.33 130.41 28.33 133.85 17.28"/><path class="cls-1" d="M126.24,28.33l-.62,2.3h-.06l-.64-2.3h-4.39l2.28,7.24c.5,1.55,0,3.47-1.56,3.66-.88,0-1.77-.11-3.52-.19v4.41c1.82.12,2.73.19,3.65.19,3.1,0,4.65-1.28,5.63-4.41l3.4-10.9Z"/><polygon class="cls-1" points="121.86 17.28 117.05 17.28 120.53 28.33 124.92 28.33 121.86 17.28"/><path class="cls-1" d="M107.1,16.75h0v4c2.29.06,3.33,1.48,3.78,4.15h-8A4.06,4.06,0,0,1,107,20.79h.13v-4c-5.42,0-9.12,4.45-9.12,10.3,0,.43,0,.86,0,1.28h17.76C116.12,22.33,113.18,16.75,107.1,16.75Z"/></svg>