<?xml version="1.0" standalone="no"?>
<!DOCTYPE svg PUBLIC "-//W3C//DTD SVG 20010904//EN"
 "http://www.w3.org/TR/2001/REC-SVG-20010904/DTD/svg10.dtd">
<svg version="1.0" xmlns="http://www.w3.org/2000/svg"
 width="260.000000pt" height="260.000000pt" viewBox="0 0 260.000000 260.000000"
 preserveAspectRatio="xMidYMid meet">
<metadata>
Created by potrace 1.11, written by Peter Selinger 2001-2013
</metadata>
<g transform="translate(0.000000,260.000000) scale(0.100000,-0.100000)"
fill="#000000" stroke="none">
<path d="M1260 2398 c-19 -11 -48 -29 -65 -38 -16 -10 -102 -59 -190 -110 -88
-51 -176 -101 -195 -112 -19 -11 -183 -106 -365 -211 -181 -105 -355 -205
-385 -222 l-55 -31 -1 -752 c0 -414 2 -751 6 -750 4 2 115 65 248 142 193 110
242 143 243 160 0 11 1 221 2 465 l2 444 100 58 c96 56 182 104 255 146 19 11
121 70 226 131 106 62 199 114 207 118 10 4 72 -26 159 -76 79 -46 146 -85
150 -87 4 -2 5 6 3 17 -5 24 -13 22 103 24 l92 2 0 -82 c0 -69 3 -83 18 -87 9
-4 35 -17 57 -30 22 -14 81 -48 130 -77 50 -28 92 -54 95 -57 3 -2 5 -211 5
-463 0 -291 4 -462 10 -468 6 -5 102 -62 215 -127 113 -64 220 -126 238 -137
l32 -20 0 754 0 753 -197 115 c-370 213 -688 396 -890 513 -111 65 -205 117
-210 117 -4 0 -24 -10 -43 -22z"/>
<path d="M1119 918 c-1 -17 -1 -351 0 -360 1 -4 85 -6 187 -5 l186 2 2 188 1
187 -187 0 c-143 0 -188 -3 -189 -12z"/>
</g>
</svg>
